<svg width="79" height="52" viewBox="0 0 79 52" fill="none" xmlns="http://www.w3.org/2000/svg">
<path d="M39.6282 51.1295C50.3996 51.1295 60.1629 48.3107 67.241 43.7402C74.3166 39.1713 78.7368 32.8298 78.7368 25.7874C78.7368 18.745 74.3166 12.4035 67.241 7.83459C60.1629 3.26407 50.3996 0.445313 39.6282 0.445313C28.8568 0.445313 19.0935 3.26407 12.0153 7.83459C4.93979 12.4035 0.519531 18.745 0.519531 25.7874C0.519531 32.8298 4.93979 39.1713 12.0153 43.7402C19.0935 48.3107 28.8568 51.1295 39.6282 51.1295Z" fill="url(#paint0_radial_1005_1335)" stroke="black" stroke-width="0.5"/>
<ellipse cx="39.6282" cy="25.7874" rx="38.8586" ry="25.0921" fill="url(#paint1_radial_1005_1335)"/>
<path d="M52.1289 25.4766L73.0385 25.4766" stroke="black" stroke-width="0.25" stroke-miterlimit="10"/>
<path d="M52.1289 25.479L65.2891 23.4844" stroke="black" stroke-width="0.25" stroke-miterlimit="10"/>
<path d="M52.1289 25.4778L69.8746 16.0547" stroke="black" stroke-width="0.25" stroke-miterlimit="10"/>
<path d="M52.1289 25.4781L67.4214 20.457" stroke="black" stroke-width="0.25" stroke-miterlimit="10"/>
<path d="M52.1289 25.4766L65.2891 27.4712" stroke="black" stroke-width="0.25" stroke-miterlimit="10"/>
<path d="M52.1289 25.4766L69.8746 34.8997" stroke="black" stroke-width="0.25" stroke-miterlimit="10"/>
<path d="M52.1289 25.4766L67.4214 30.4976" stroke="black" stroke-width="0.25" stroke-miterlimit="10"/>
<path d="M27.1601 25.4766L6.27344 25.4766" stroke="black" stroke-width="0.25" stroke-miterlimit="10"/>
<path d="M27.1607 25.479L14.0234 23.4844" stroke="black" stroke-width="0.25" stroke-miterlimit="10"/>
<path d="M27.1602 25.4778L9.4375 16.0547" stroke="black" stroke-width="0.25" stroke-miterlimit="10"/>
<path d="M27.1596 25.4781L11.8672 20.457" stroke="black" stroke-width="0.25" stroke-miterlimit="10"/>
<path d="M27.1607 25.4766L14.0234 27.4712" stroke="black" stroke-width="0.25" stroke-miterlimit="10"/>
<path d="M27.1602 25.4766L9.4375 34.8997" stroke="black" stroke-width="0.25" stroke-miterlimit="10"/>
<path d="M27.1596 25.4766L11.8672 30.4976" stroke="black" stroke-width="0.25" stroke-miterlimit="10"/>
<path d="M58.0102 25.643L50.7148 18.3477L43.4195 25.643L50.7148 32.9383L58.0102 25.643Z" fill="#FF0089" stroke="black" stroke-width="0.25" stroke-miterlimit="10"/>
<path d="M47.0024 14.6391L39.707 7.34375L32.4117 14.6391L39.707 21.9344L47.0024 14.6391Z" fill="#FF0089" stroke="black" stroke-width="0.25" stroke-miterlimit="10"/>
<path d="M35.9985 25.643L28.7031 18.3477L21.4078 25.643L28.7031 32.9383L35.9985 25.643Z" fill="#FF0089" stroke="black" stroke-width="0.25" stroke-miterlimit="10"/>
<path d="M47.0024 36.6508L39.707 29.3555L32.4117 36.6508L39.707 43.9461L47.0024 36.6508Z" fill="#FF0089" stroke="black" stroke-width="0.25" stroke-miterlimit="10"/>
<path d="M44.1522 22.1791C43.4186 20.643 44.0147 18.6483 44.3127 17.7083C44.6108 16.7224 45.0235 15.3697 46.1928 14.1546C46.9723 13.3521 47.4767 13.2375 48.1416 12.3433C48.8065 11.4492 49.0816 10.5321 49.2192 9.86719C49.3567 10.9906 49.1733 11.7931 49.0128 12.3204C48.5313 13.719 47.683 14.1775 47.1557 15.7824C46.9264 16.4932 46.8577 17.1122 46.8347 17.479C46.9952 17.2727 47.2474 16.9976 47.6372 16.7912C48.4626 16.3327 49.2879 16.4244 49.5631 16.4702C49.3567 16.5161 47.9123 16.9517 47.3621 18.3503C47.1328 18.9234 47.1557 19.4737 47.2016 19.7947C48.0269 19.4049 48.8294 19.0152 49.6548 18.6025C48.5313 19.7947 47.9123 20.9181 47.5684 21.7664C47.1099 22.844 46.9494 23.8299 46.3533 23.9445C45.8489 24.0362 45.2986 23.5318 44.9776 23.2338C44.8859 23.1879 44.4503 22.7752 44.1522 22.1791Z" fill="#009E57" stroke="black" stroke-width="0.25" stroke-miterlimit="10"/>
<path d="M35.1627 22.1791C35.8964 20.643 35.3003 18.6483 35.0022 17.7083C34.7041 16.7224 34.2915 15.3697 33.1222 14.1546C32.3426 13.3521 31.8382 13.2375 31.1734 12.3433C30.5085 11.4492 30.2333 10.5321 30.0958 9.86719C29.9582 10.9906 30.1416 11.7931 30.3021 12.3204C30.7836 13.719 31.6319 14.1775 32.1592 15.7824C32.3885 16.4932 32.4573 17.1122 32.4802 17.479C32.3197 17.2727 32.0675 16.9976 31.6778 16.7912C30.8524 16.3327 30.027 16.4244 29.7519 16.4702C29.9582 16.5161 31.4026 16.9517 31.9529 18.3503C32.1822 18.9234 32.1592 19.4737 32.1134 19.7947C31.288 19.4049 30.4855 19.0152 29.6602 18.6025C30.7836 19.7947 31.4026 20.9181 31.7465 21.7664C32.2051 22.844 32.3656 23.8299 32.9617 23.9445C33.4661 24.0362 34.0163 23.5318 34.3373 23.2338C34.4061 23.1879 34.8646 22.7752 35.1627 22.1791Z" fill="#009E57" stroke="black" stroke-width="0.25" stroke-miterlimit="10"/>
<path d="M44.1522 29.1943C43.4186 30.7305 44.0147 32.7251 44.3127 33.6652C44.6108 34.651 45.0235 36.0037 46.1928 37.2189C46.9723 38.0213 47.4767 38.136 48.1416 39.0301C48.8065 39.9243 49.0816 40.8414 49.2192 41.5063C49.3567 40.3828 49.1733 39.5804 49.0128 39.0531C48.5313 37.6545 47.683 37.1959 47.1557 35.591C46.9264 34.8803 46.8577 34.2613 46.8347 33.8944C46.9952 34.1008 47.2474 34.3759 47.6372 34.5822C48.4626 35.0408 49.2879 34.9491 49.5631 34.9032C49.3567 34.8574 47.9123 34.4218 47.3621 33.0232C47.1328 32.45 47.1557 31.8998 47.2016 31.5788C48.0269 31.9685 48.8294 32.3583 49.6548 32.771C48.5313 31.5788 47.9123 30.4553 47.5684 29.607C47.1099 28.5295 46.9494 27.5436 46.3533 27.4289C45.8489 27.3372 45.2986 27.8416 44.9776 28.1397C44.8859 28.1855 44.4503 28.5982 44.1522 29.1943Z" fill="#009E57" stroke="black" stroke-width="0.25" stroke-miterlimit="10"/>
<path d="M35.1627 29.1943C35.8964 30.7305 35.3003 32.7251 35.0022 33.6652C34.7041 34.651 34.2915 36.0037 33.1222 37.2189C32.3426 38.0213 31.8382 38.136 31.1734 39.0301C30.5085 39.9243 30.2333 40.8414 30.0958 41.5063C29.9582 40.3828 30.1416 39.5804 30.3021 39.0531C30.7836 37.6545 31.6319 37.1959 32.1592 35.591C32.3885 34.8803 32.4573 34.2613 32.4802 33.8944C32.3197 34.1008 32.0675 34.3759 31.6778 34.5822C30.8524 35.0408 30.027 34.9491 29.7519 34.9032C29.9582 34.8574 31.4026 34.4218 31.9529 33.0232C32.1822 32.45 32.1592 31.8998 32.1134 31.5788C31.288 31.9685 30.4855 32.3583 29.6602 32.771C30.7836 31.5788 31.4026 30.4553 31.7465 29.607C32.2051 28.5295 32.3656 27.5436 32.9617 27.4289C33.4661 27.3372 34.0163 27.8416 34.3373 28.1397C34.4061 28.1855 34.8646 28.5982 35.1627 29.1943Z" fill="#009E57" stroke="black" stroke-width="0.25" stroke-miterlimit="10"/>
<path d="M41.9487 33.9739C42.575 34.1996 43.2941 34.0867 43.8044 33.5902C44.2915 33.1162 44.4307 32.4617 44.2219 31.8749C44.8251 32.0554 45.4978 31.92 45.9849 31.4686C46.472 31.0172 46.6112 30.3401 46.4024 29.7533C47.0056 29.9339 47.6783 29.7985 48.1654 29.3471C48.6757 28.8505 48.7917 28.1509 48.5597 27.5415C49.534 28.0606 50.7866 27.9252 51.6217 27.1127C52.6192 26.1421 52.6192 24.5623 51.6217 23.5918C50.7866 22.7792 49.534 22.6438 48.5597 23.1629C48.7917 22.5535 48.6757 21.8539 48.1654 21.3573C47.6783 20.8834 47.0056 20.748 46.4024 20.9511C46.588 20.3643 46.4488 19.7097 45.9849 19.2358C45.4978 18.7618 44.8251 18.6264 44.2219 18.8295C44.4075 18.2427 44.2683 17.5882 43.8044 17.1142C43.2941 16.6177 42.575 16.5048 41.9487 16.7305C42.4822 15.7826 42.343 14.5638 41.5079 13.7513C40.5105 12.7808 38.8867 12.7808 37.8892 13.7513C37.0541 14.5638 36.915 15.7826 37.4485 16.7305C36.8222 16.5048 36.1031 16.6177 35.5927 17.1142C35.1056 17.5882 34.9664 18.2427 35.1752 18.8295C34.5721 18.649 33.8994 18.7844 33.4123 19.2358C32.9251 19.7097 32.7859 20.3643 32.9947 20.9511C32.3916 20.7705 31.7189 20.906 31.2318 21.3573C30.7214 21.8539 30.6054 22.5535 30.8374 23.1629C29.8631 22.6438 28.6105 22.7792 27.7754 23.5918C26.778 24.5623 26.778 26.1421 27.7754 27.1127C28.6105 27.9252 29.8631 28.0606 30.8374 27.5415C30.6054 28.1509 30.7214 28.8505 31.2318 29.3471C31.7189 29.821 32.3916 29.9564 32.9947 29.7533C32.8091 30.3401 32.9483 30.9947 33.4123 31.4686C33.8994 31.9426 34.5721 32.078 35.1752 31.8749C34.9896 32.4617 35.1288 33.1162 35.5927 33.5902C36.1031 34.0867 36.8222 34.1996 37.4485 33.9739C36.915 34.9218 37.0541 36.1406 37.8892 36.9531C38.8867 37.9236 40.5105 37.9236 41.5079 36.9531C42.343 36.1406 42.4822 34.9218 41.9487 33.9739Z" fill="#0B57B0" stroke="black" stroke-width="0.25" stroke-miterlimit="10"/>
<path d="M41.0533 32.6391C41.5123 32.8293 42.0632 32.7342 42.4535 32.33C42.8207 31.9496 42.9125 31.4266 42.7748 30.9511C43.2339 31.0938 43.7389 30.9987 44.1061 30.6183C44.4734 30.2379 44.5652 29.7149 44.4275 29.2394C44.8866 29.3821 45.3916 29.287 45.7588 28.9066C46.1261 28.5262 46.2409 27.9556 46.0572 27.4564C46.7918 27.8843 47.7558 27.7655 48.3756 27.1236C49.1331 26.339 49.1331 25.0552 48.3756 24.2707C47.7558 23.6288 46.7918 23.5099 46.0572 23.9379C46.2409 23.4624 46.1491 22.8918 45.7588 22.4877C45.3916 22.1073 44.8866 22.0122 44.4275 22.1548C44.5652 21.6794 44.4734 21.1563 44.1061 20.776C43.7389 20.3956 43.2339 20.3005 42.7748 20.4431C42.9125 19.9676 42.8207 19.4446 42.4535 19.0642C42.0862 18.6839 41.5353 18.565 41.0533 18.7552C41.4664 17.9944 41.3517 16.9959 40.7319 16.354C39.9744 15.5695 38.7349 15.5695 37.9774 16.354C37.3577 16.9959 37.2429 17.9944 37.6561 18.7552C37.197 18.565 36.6461 18.6601 36.2559 19.0642C35.8886 19.4446 35.7968 19.9676 35.9345 20.4431C35.4754 20.3005 34.9705 20.3956 34.6032 20.776C34.2359 21.1563 34.1441 21.6794 34.2818 22.1548C33.8228 22.0122 33.3178 22.1073 32.9505 22.4877C32.5832 22.868 32.4685 23.4386 32.6521 23.9379C31.9176 23.5099 30.9535 23.6288 30.3337 24.2707C29.5763 25.0552 29.5763 26.339 30.3337 27.1236C30.9535 27.7655 31.9176 27.8843 32.6521 27.4564C32.4685 27.9319 32.5603 28.5024 32.9505 28.9066C33.3178 29.287 33.8228 29.3821 34.2818 29.2394C34.1441 29.7149 34.2359 30.2379 34.6032 30.6183C34.9705 30.9987 35.4754 31.0938 35.9345 30.9511C35.7968 31.4266 35.8886 31.9496 36.2559 32.33C36.6231 32.7104 37.174 32.8293 37.6561 32.6391C37.2429 33.3998 37.3577 34.3983 37.9774 35.0402C38.7349 35.8248 39.9744 35.8248 40.7319 35.0402C41.3517 34.3983 41.4664 33.3998 41.0533 32.6391Z" fill="#FF6814" stroke="black" stroke-width="0.25" stroke-miterlimit="10"/>
<path d="M39.7227 21.8945L35.9453 25.6719L39.7227 29.4492L43.5 25.6719L39.7227 21.8945Z" fill="#009E57" stroke="black" stroke-width="0.25" stroke-miterlimit="10"/>
<path d="M44.7249 24.7595L43.8008 25.6836L44.7249 26.6077L45.6489 25.6836L44.7249 24.7595Z" fill="#009E57" stroke="black" stroke-width="0.25" stroke-miterlimit="10"/>
<path d="M39.7249 19.7283L38.8008 20.6523L39.7249 21.5764L40.6489 20.6523L39.7249 19.7283Z" fill="#009E57" stroke="black" stroke-width="0.25" stroke-miterlimit="10"/>
<path d="M39.7131 29.7478L38.7891 30.6719L39.7131 31.5959L40.6372 30.6719L39.7131 29.7478Z" fill="#009E57" stroke="black" stroke-width="0.25" stroke-miterlimit="10"/>
<path d="M34.7092 24.7517L33.7852 25.6758L34.7092 26.5999L35.6333 25.6758L34.7092 24.7517Z" fill="#009E57" stroke="black" stroke-width="0.25" stroke-miterlimit="10"/>
<path d="M39.5869 27.0605C40.4353 27.0605 41.123 26.3728 41.123 25.5244C41.123 24.676 40.4353 23.9883 39.5869 23.9883C38.7385 23.9883 38.0508 24.676 38.0508 25.5244C38.0508 26.3728 38.7385 27.0605 39.5869 27.0605Z" fill="#FDF700" stroke="black" stroke-width="0.25" stroke-miterlimit="10"/>
<path d="M38.0752 25.5488C38.9236 25.5488 39.6113 24.8611 39.6113 24.0127C39.6113 23.1643 38.9236 22.4766 38.0752 22.4766C37.2268 22.4766 36.5391 23.1643 36.5391 24.0127C36.5391 24.8611 37.2268 25.5488 38.0752 25.5488Z" fill="#FDF700" stroke="black" stroke-width="0.25" stroke-miterlimit="10"/>
<path d="M41.1455 25.5488C41.9939 25.5488 42.6816 24.8611 42.6816 24.0127C42.6816 23.1643 41.9939 22.4766 41.1455 22.4766C40.2971 22.4766 39.6094 23.1643 39.6094 24.0127C39.6094 24.8611 40.2971 25.5488 41.1455 25.5488Z" fill="#FDF700" stroke="black" stroke-width="0.25" stroke-miterlimit="10"/>
<path d="M38.0752 28.623C38.9236 28.623 39.6113 27.9353 39.6113 27.0869C39.6113 26.2385 38.9236 25.5508 38.0752 25.5508C37.2268 25.5508 36.5391 26.2385 36.5391 27.0869C36.5391 27.9353 37.2268 28.623 38.0752 28.623Z" fill="#FDF700" stroke="black" stroke-width="0.25" stroke-miterlimit="10"/>
<path d="M41.1455 28.623C41.9939 28.623 42.6816 27.9353 42.6816 27.0869C42.6816 26.2385 41.9939 25.5508 41.1455 25.5508C40.2971 25.5508 39.6094 26.2385 39.6094 27.0869C39.6094 27.9353 40.2971 28.623 41.1455 28.623Z" fill="#FDF700" stroke="black" stroke-width="0.25" stroke-miterlimit="10"/>
<path d="M54.8605 8.03125L53.5078 8.03125L53.5078 43.0411H54.8605L54.8605 8.03125Z" fill="#FDF700" stroke="black" stroke-width="0.25" stroke-miterlimit="10"/>
<path d="M25.7394 8.03125L24.3867 8.03125L24.3867 43.0411H25.7394L25.7394 8.03125Z" fill="#FDF700" stroke="black" stroke-width="0.25" stroke-miterlimit="10"/>
<defs>
<radialGradient id="paint0_radial_1005_1335" cx="0" cy="0" r="1" gradientUnits="userSpaceOnUse" gradientTransform="translate(39.6282 25.7874) rotate(90) scale(25.0921 38.8586)">
<stop offset="0.585" stop-color="#FFDCE9"/>
<stop offset="1" stop-color="#FF63AE"/>
</radialGradient>
<radialGradient id="paint1_radial_1005_1335" cx="0" cy="0" r="1" gradientUnits="userSpaceOnUse" gradientTransform="translate(39.6282 25.7874) rotate(90) scale(25.0921 38.8586)">
<stop offset="0.585" stop-color="#FFDCE9"/>
<stop offset="1" stop-color="#FF63AE"/>
</radialGradient>
</defs>
</svg>
